name Run_300 02_newCOP3_v24.mot
datacolumns 19
datarows 43
range 2.95 2.992
DataType=double
version=3
OpenSimVersion=4.3-2021-08-27-4bc7ad9
endheader
time	R_ground_force_vx	R_ground_force_vy	R_ground_force_vz	R_ground_force_px	R_ground_force_py	R_ground_force_pz	L_ground_force_vx	L_ground_force_vy	L_ground_force_vz	L_ground_force_px	L_ground_force_py	L_ground_force_pz	R_ground_torque_x	R_ground_torque_y	R_ground_torque_z	L_ground_torque_x	L_ground_torque_y	L_ground_torque_z
2.95	0	0	0	0	0	0	-1.513806	68.207932	-7.512391	0.911809	0	-0.386442	0	0	0	-0	1.39911	-0
2.951	0	0	0	0	0	0	-0.7411	76.653976	-8.088796	0.948824	0	-0.380899	0	0	0	-0	1.224663	-0
2.952	0	0	0	0	0	0	0.169257	85.977943	-8.730081	0.970163	0	-0.377526	0	0	0	-0	1.052688	-0
2.953	0	0	0	0	0	0	1.21992	96.234627	-9.441212	0.984109	0	-0.375189	0	0	0	-0	0.885426	-0
2.954	0	0	0	0	0	0	2.410521	107.47654	-10.225484	0.9939789999999999	0	-0.373431	0	0	0	-0	0.72497	-0
2.955	0	0	0	0	0	0	3.737206	119.752792	-11.084148	1.001366	0	-0.372036	0	0	0	-0	0.573237	-0
2.956	0	0	0	0	0	0	5.19223	133.107986	-12.01605	1.007126	0	-0.370882	0	0	0	-0	0.431948	-0
2.957	0	0	0	0	0	0	6.763614	147.580917	-13.017292	1.011761	0	-0.369901	0	0	0	-0	0.302616	-0
2.958	0	0	0	0	0	0	8.434915	163.203262	-14.080936	1.015587	0	-0.369049	0	0	0	-0	0.18653	-0
2.959	0	0	0	0	0	0	10.18511	179.998169	-15.196763	1.018811	0	-0.368296	0	0	0	-0	0.084746	-0
2.96	0	0	0	0	0	0	11.98862	197.978851	-16.351099	1.021573	0	-0.367622	0	0	0	0	-0.001916	0
2.961	0	0	0	0	0	0	13.815489	217.147141	-17.52673	1.023975	0	-0.367012	0	0	0	0	-0.07287399999999999	0
2.962	0	0	0	0	0	0	15.631718	237.492142	-18.702929	1.026088	0	-0.366457	0	0	0	0	-0.127785	0
2.963	0	0	0	0	0	0	17.399763	258.988922	-19.855598	1.027968	0	-0.365947	0	0	0	0	-0.166536	0
2.964	0	0	0	0	0	0	19.079185	281.597504	-20.957556	1.029656	0	-0.365478	0	0	0	0	-0.189238	0
2.965	0	0	0	0	0	0	20.627438	305.26181	-21.978964	1.031183	0	-0.365044	0	0	0	0	-0.196218	0
2.966	0	0	0	0	0	0	22.000763	329.90921	-22.887922	1.032574	0	-0.364641	0	0	0	0	-0.188002	0
2.967	0	0	0	0	0	0	23.155191	355.450165	-23.651218	1.03385	0	-0.364267	0	0	0	0	-0.165306	0
2.968	0	0	0	0	0	0	24.04759	381.778442	-24.235241	1.035027	0	-0.36392	0	0	0	0	-0.129011	0
2.969	0	0	0	0	0	0	24.636717	408.771606	-24.607012	1.036116	0	-0.363597	0	0	0	0	-0.080154	0
2.97	0	0	0	0	0	0	24.884274	436.292236	-24.735376	1.03713	0	-0.363298	0	0	0	0	-0.019902	0
2.971	0	0	0	0	0	0	24.75588	464.189331	-24.592239	1.038076	0	-0.36302	0	0	0	-0	0.050463	-0
2.972	0	0	0	0	0	0	24.221951	492.300598	-24.153881	1.038962	0	-0.362763	0	0	0	-0	0.129571	-0
2.973	0	0	0	0	0	0	23.258442	520.454773	-23.40225	1.039794	0	-0.362527	0	0	0	-0	0.21598	-0
2.974	0	0	0	0	0	0	21.847435	548.4746699999999	-22.326199	1.040576	0	-0.36231	0	0	0	-0	0.308197	-0
2.975	0	0	0	0	0	0	19.977524	576.18042	-20.922586	1.041313	0	-0.362114	0	0	0	-0	0.404704	-0
2.976	0	0	0	0	0	0	17.644033	603.3929440000001	-19.197206	1.042008	0	-0.361936	0	0	0	-0	0.503974	-0
2.977	0	0	0	0	0	0	14.849026	629.937439	-17.16543	1.042664	0	-0.361777	0	0	0	-0	0.6044929999999999	-0
2.978	0	0	0	0	0	0	11.601143	655.646973	-14.852563	1.043283	0	-0.361637	0	0	0	-0	0.704778	-0
2.979	0	0	0	0	0	0	7.915271	680.365723	-12.293824	1.043867	0	-0.361517	0	0	0	-0	0.8033979999999999	-0
2.98	0	0	0	0	0	0	3.812085	703.951904	-9.533937999999999	1.044416	0	-0.361415	0	0	0	-0	0.898985	-0
2.981	0	0	0	0	0	0	-0.682527	726.280701	-6.626309	1.044932	0	-0.361332	0	0	0	-0	0.990256	-0
2.982	0	0	0	0	0	0	-5.538113	747.245911	-3.631794	1.045415	0	-0.361268	0	0	0	-0	1.07602	-0
2.983	0	0	0	0	0	0	-10.720349	766.761963	-0.617099	1.045865	0	-0.361224	0	0	0	-0	1.155195	-0
2.984	0	0	0	0	0	0	-16.191769	784.764648	2.347155	1.046282	0	-0.361199	0	0	0	-0	1.226819	-0
2.985	0	0	0	0	0	0	-21.912487	801.21167	5.188628	1.046664	0	-0.361193	0	0	0	-0	1.290052	-0
2.986	0	0	0	0	0	0	-27.840937	816.082642	7.835621	1.047013	0	-0.361207	0	0	0	-0	1.344189	-0
2.987	0	0	0	0	0	0	-33.934574	829.378845	10.219512	1.047324	0	-0.361241	0	0	0	-0	1.388661	-0
2.988	0	0	0	0	0	0	-40.150581	841.121887	12.277162	1.047598	0	-0.361295	0	0	0	-0	1.42304	-0
2.989	0	0	0	0	0	0	-46.446556	851.353088	13.953171	1.047832	0	-0.361368	0	0	0	-0	1.447036	-0
2.99	0	0	0	0	0	0	-52.781178	860.131836	15.201907	1.048023	0	-0.361462	0	0	0	-0	1.460499	-0
2.991	0	0	0	0	0	0	-59.114853	867.534241	15.989206	1.04817	0	-0.361574	0	0	0	-0	1.463416	-0
2.992	0	0	0	0	0	0	-65.410347	873.651062	16.293674	1.048268	0	-0.361707	0	0	0	-0	1.455902	-0
